Source: The.Pianist.2002.720p.BluRay.DTS.x264-FoRM

Subs: Arabic, Croatian, Danish, Dutch, English, Finnish, French, German, Italian, Norwegian,Swedish and Turkish.

Sample and Screens included.

First version has some issue`s, so i made this repack!

General
Complete name                    : The Pianist-720p MP4 AAC x264 BRRip 2002-CC.mp4
Format                           : MPEG-4
Format profile                   : Base Media
Codec ID                         : isom
File size                        : 3.01 GiB
Duration                         : 2h 28mn
Overall bit rate                 : 2 898 Kbps
Encoded date                     : UTC 2012-06-04 13:23:10

Video
ID                               : 1
Format                           : AVC
Format/Info                      : Advanced Video Codec
Format profile                   : High@L3.1
Format settings, CABAC           : Yes
Format settings, ReFrames        : 5 frames
Codec ID                         : avc1
Codec ID/Info                    : Advanced Video Coding
Duration                         : 2h 28mn
Bit rate mode                    : Variable
Bit rate                         : 2 535 Kbps
Nominal bit rate                 : 2 516 Kbps
Maximum bit rate                 : 11.8 Mbps
Width                            : 1 280 pixels
Height                           : 688 pixels
Display aspect ratio             : 1.851
Frame rate mode                  : Variable
Frame rate                       : 24.000 fps
Minimum frame rate               : 19.048 fps
Maximum frame rate               : 24.390 fps
Resolution                       : 24 bits
Colorimetry                      : 4:2:0
Scan type                        : Progressive
Bits/(Pixel*Frame)               : 0.120
Stream size                      : 2.63 GiB (87%)
Writing library                  : x264 core 112

Audio
ID                               : 2
Format                           : AAC
Format/Info                      : Advanced Audio Codec
Format version                   : Version 4
Format profile                   : LC
Format settings, SBR             : No
Codec ID                         : 40
Duration                         : 2h 28mn
Bit rate mode                    : Variable
Bit rate                         : 360 Kbps
Maximum bit rate                 : 832 Kbps
Channel(s)                       : 6 channels
Channel positions                : Front: L C R, Rear: L R, LFE
Sampling rate                    : 48.0 KHz
Resolution                       : 16 bits
Stream size                      : 383 MiB (12%)
Language                         : English

Enjoy...

Requested by DreamExtractor and cmptrluvr's.